<?xml version="1.0" standalone="no"?><!DOCTYPE svg PUBLIC "-//W3C//DTD SVG 1.1//EN" "http://www.w3.org/Graphics/SVG/1.1/DTD/svg11.dtd"><svg class="icon" width="200px" height="200.00px" viewBox="0 0 1024 1024" version="1.1" xmlns="http://www.w3.org/2000/svg"><path fill="#333333" d="M310.41611852 166.47964445c-78.88592592 0-137.74696297 105.58577778-137.74696297 200.00616296 0 94.54174815 56.6765037 141.38785185 118.3288889 149.51917037V871.23437037c0 10.8013037 8.73813333 19.53943703 19.53943703 19.53943704 10.8013037 0 19.53943703-8.73813333 19.53943704-19.53943704V516.00497778c61.65238518-8.13131852 118.32888889-54.97742222 118.32888889-149.51917037-0.24272592-94.42038518-59.10376297-200.00616297-137.98968889-200.00616296z m0 312.14554073c-60.92420741 0-98.78945185-42.96248889-98.78945185-112.13937777 0-81.19182222 48.90927408-160.92728889 98.78945185-160.92728889s98.78945185 79.73546667 98.78945185 160.92728889c0 69.17688889-37.86524445 112.13937778-98.78945185 112.13937777zM782.27531852 166.47964445c-10.8013037 0-19.53943703 8.73813333-19.53943704 19.53943703v204.4965926c0 44.29748148-33.01072592 80.70637037-75.60912593 86.89588147V186.01908148c0-10.8013037-8.73813333-19.53943703-19.53943703-19.53943703s-19.53943703 8.73813333-19.53943704 19.53943703v291.39247407c-42.5984-6.18951111-75.60912592-42.5984-75.60912593-86.89588147V186.01908148c0-10.8013037-8.73813333-19.53943703-19.53943703-19.53943703s-19.53943703 8.73813333-19.53943704 19.53943703v204.4965926c0 65.77872592 50.48699259 119.54251852 114.56663704 125.85339259V871.23437037c0 10.8013037 8.73813333 19.53943703 19.53943703 19.53943704s19.53943703-8.73813333 19.53943704-19.53943704V516.36906667c64.20100741-6.43223703 114.56663703-60.07466667 114.56663704-125.85339259V186.01908148c0.24272592-10.8013037-8.49540741-19.53943703-19.29671111-19.53943703z"  /></svg>